<?xml version="1.0" encoding="UTF-8"?>
<svg id="Layer_2" data-name="Layer 2" xmlns="http://www.w3.org/2000/svg" xmlns:xlink="http://www.w3.org/1999/xlink" viewBox="0 0 556 514">
  <defs>
    <style>
      .cls-1 {
        opacity: 0;
        stroke: url(#linear-gradient);
        stroke-width: 106px;
      }

      .cls-1, .cls-2, .cls-3, .cls-4, .cls-5 {
        stroke-miterlimit: 10;
      }

      .cls-1, .cls-3, .cls-5 {
        fill: none;
      }

      .cls-2 {
        stroke-width: 3px;
      }

      .cls-2, .cls-3, .cls-5 {
        stroke: #e2e2e2;
      }

      .cls-2, .cls-4, .cls-6, .cls-7 {
        fill: #fff;
      }

      .cls-4 {
        stroke: #fff;
      }

      .cls-4, .cls-5 {
        stroke-width: 2px;
      }

      .cls-6 {
        font-size: 43px;
      }

      .cls-6, .cls-7 {
        font-family: MoolBoran, MoolBoran;
      }

      .cls-7 {
        font-size: 30px;
      }
    </style>
    <linearGradient id="linear-gradient" x1="79" y1="232.99" x2="226.8" y2="232.99" gradientUnits="userSpaceOnUse">
      <stop offset="0" stop-color="#45ffec" stop-opacity=".2"/>
      <stop offset=".64" stop-color="#32c6e5" stop-opacity=".53"/>
      <stop offset=".94" stop-color="#29abe2" stop-opacity=".7"/>
    </linearGradient>
  </defs>
  <g id="Layer_5" data-name="Layer 5">
    <g>
      <path d="m0,0v514h556V0H0Zm273,258v-15,15Z"/>
      <g>
        <path class="cls-5" d="m415.16,385.58c32.53-34.69,52.45-81.34,52.45-132.65,0-107.14-86.86-194-194-194S79.61,145.79,79.61,252.94c0,46.46,16.33,89.09,43.57,122.49"/>
        <path class="cls-3" d="m283.4,78.17c.33-5.66.65-11.31.98-16.97"/>
        <path class="cls-3" d="m292.94,78.99l1.89-16.89"/>
        <path class="cls-3" d="m302.43,80.32l2.81-16.77"/>
        <path class="cls-3" d="m311.82,82.16l3.71-16.59"/>
        <path class="cls-3" d="m321.11,84.51c1.53-5.46,3.07-10.91,4.6-16.37"/>
        <path class="cls-3" d="m330.25,87.35c1.83-5.36,3.65-10.73,5.48-16.09"/>
        <path class="cls-3" d="m339.23,90.69c2.11-5.26,4.23-10.52,6.34-15.77"/>
        <path class="cls-3" d="m348.01,94.5c2.39-5.14,4.79-10.27,7.18-15.41"/>
        <path class="cls-3" d="m356.57,98.79c2.67-5,5.34-10,8.01-15"/>
        <path class="cls-3" d="m364.89,103.53c2.94-4.85,5.87-9.69,8.81-14.54"/>
        <path class="cls-3" d="m372.94,108.71c3.19-4.68,6.39-9.36,9.58-14.04"/>
        <path class="cls-3" d="m380.7,114.33c3.44-4.5,6.88-9,10.33-13.51"/>
        <path class="cls-3" d="m388.14,120.35c3.68-4.31,7.36-8.62,11.04-12.93"/>
        <path class="cls-3" d="m395.25,126.77c3.91-4.1,7.82-8.21,11.72-12.31"/>
        <path class="cls-3" d="m402,133.56c4.12-3.89,8.25-7.77,12.37-11.66"/>
        <path class="cls-3" d="m408.37,140.71c4.33-3.66,8.66-7.32,12.98-10.97"/>
        <g>
          <path class="cls-3" d="m120.31,371.81c4.52-3.42,9.04-6.84,13.56-10.25"/>
          <path class="cls-3" d="m416.34,148.19c4.52-3.42,9.04-6.84,13.56-10.25"/>
        </g>
        <g>
          <path class="cls-3" d="m114.21,363.27c4.7-3.17,9.4-6.34,14.09-9.51"/>
          <path class="cls-3" d="m421.91,155.98c4.7-3.17,9.4-6.34,14.09-9.51"/>
        </g>
        <g>
          <path class="cls-3" d="m108.59,354.41c4.86-2.91,9.72-5.82,14.59-8.73"/>
          <path class="cls-3" d="m427.04,164.07c4.86-2.91,9.72-5.82,14.59-8.73"/>
        </g>
        <g>
          <path class="cls-3" d="m103.45,345.26c5.01-2.64,10.03-5.29,15.04-7.93"/>
          <path class="cls-3" d="m431.73,172.42c5.01-2.64,10.03-5.29,15.04-7.93"/>
        </g>
        <g>
          <path class="cls-3" d="m98.81,335.84c5.15-2.37,10.3-4.74,15.44-7.1"/>
          <path class="cls-3" d="m435.96,181.01c5.15-2.37,10.3-4.74,15.44-7.1"/>
        </g>
        <g>
          <path class="cls-3" d="m92.69,326.19c5.27-2.09,10.54-4.17,15.81-6.26"/>
          <path class="cls-3" d="m437.72,189.81c5.27-2.09,10.54-4.17,15.81-6.26"/>
        </g>
        <g>
          <path class="cls-3" d="m89.1,316.33c5.37-1.8,10.75-3.6,16.12-5.39"/>
          <path class="cls-3" d="m440.99,198.81c5.37-1.8,10.75-3.6,16.12-5.39"/>
        </g>
        <g>
          <path class="cls-3" d="m86.04,306.29c5.46-1.5,10.93-3.01,16.39-4.51"/>
          <path class="cls-3" d="m443.78,207.97c5.46-1.5,10.93-3.01,16.39-4.51"/>
        </g>
        <g>
          <path class="cls-3" d="m83.54,296.1c5.54-1.21,11.07-2.41,16.61-3.62"/>
          <path class="cls-3" d="m446.07,217.27c5.54-1.21,11.07-2.41,16.61-3.62"/>
        </g>
        <g>
          <path class="cls-3" d="m81.59,285.78c5.59-.91,11.19-1.81,16.78-2.72"/>
          <path class="cls-3" d="m447.85,226.68c5.59-.91,11.19-1.81,16.78-2.72"/>
        </g>
        <g>
          <path class="cls-3" d="m80.19,275.38c5.63-.6,11.27-1.2,16.9-1.81"/>
          <path class="cls-3" d="m449.12,236.17c5.63-.6,11.27-1.2,16.9-1.81"/>
        </g>
        <g>
          <path class="cls-3" d="m79.37,264.92c5.66-.3,11.32-.59,16.98-.89"/>
          <path class="cls-3" d="m449.87,245.72c5.66-.3,11.32-.59,16.98-.89"/>
        </g>
        <g>
          <path class="cls-3" d="m79.11,254.43c5.67,0,11.33.02,17,.03"/>
          <path class="cls-3" d="m450.11,255.29c5.67,0,11.33.02,17,.03"/>
        </g>
        <g>
          <path class="cls-3" d="m79.42,243.94c5.66.32,11.32.63,16.97.95"/>
          <path class="cls-3" d="m449.83,264.86c5.66.32,11.32.63,16.97.95"/>
        </g>
        <g>
          <path class="cls-3" d="m80.29,233.48c5.63.62,11.26,1.24,16.9,1.87"/>
          <path class="cls-3" d="m449.03,274.4c5.63.62,11.26,1.24,16.9,1.87"/>
        </g>
        <g>
          <path class="cls-3" d="m81.73,223.08c5.59.93,11.18,1.85,16.77,2.78"/>
          <path class="cls-3" d="m447.71,283.89c5.59.93,11.18,1.85,16.77,2.78"/>
        </g>
        <g>
          <path class="cls-3" d="m83.73,212.78c5.53,1.23,11.06,2.45,16.6,3.68"/>
          <path class="cls-3" d="m445.89,293.29c5.53,1.23,11.06,2.45,16.6,3.68"/>
        </g>
        <g>
          <path class="cls-3" d="m86.28,202.6c5.46,1.52,10.92,3.05,16.37,4.57"/>
          <path class="cls-3" d="m443.56,302.58c5.46,1.52,10.92,3.05,16.37,4.57"/>
        </g>
        <g>
          <path class="cls-3" d="m89.38,192.57c5.37,1.82,10.74,3.63,16.1,5.45"/>
          <path class="cls-3" d="m440.73,311.72c5.37,1.82,10.74,3.63,16.1,5.45"/>
        </g>
        <g>
          <path class="cls-3" d="m93.02,182.73c5.26,2.1,10.52,4.21,15.78,6.31"/>
          <path class="cls-3" d="m437.41,320.7c5.26,2.1,10.52,4.21,15.78,6.31"/>
        </g>
        <g>
          <path class="cls-3" d="m97.19,173.1c5.14,2.39,10.28,4.77,15.42,7.16"/>
          <path class="cls-3" d="m433.61,329.49c5.14,2.39,10.28,4.77,15.42,7.16"/>
        </g>
        <g>
          <path class="cls-3" d="m101.87,163.7c5,2.66,10.01,5.32,15.01,7.98"/>
          <path class="cls-3" d="m429.34,338.06c5,2.66,10.01,5.32,15.01,7.98"/>
        </g>
        <g>
          <path class="cls-3" d="m107.05,154.57l14.56,8.78"/>
          <path class="cls-3" d="m424.61,346.39c4.85,2.93,9.7,5.85,14.56,8.78"/>
        </g>
        <g>
          <path class="cls-3" d="m112.71,145.74l14.06,9.56"/>
          <path class="cls-3" d="m419.44,354.45c4.69,3.19,9.37,6.37,14.06,9.56"/>
        </g>
        <g>
          <path class="cls-3" d="m118.85,137.23l13.52,10.3"/>
          <path class="cls-3" d="m413.84,362.22c4.51,3.43,9.02,6.87,13.52,10.3"/>
        </g>
        <g>
          <path class="cls-3" d="m125.44,129.06l12.95,11.02"/>
          <path class="cls-3" d="m407.83,369.67c4.32,3.67,8.63,7.35,12.95,11.02"/>
        </g>
        <path class="cls-3" d="m132.46,121.25c4.11,3.9,8.22,7.8,12.33,11.7"/>
        <path class="cls-3" d="m139.89,113.84c3.89,4.12,7.79,8.23,11.68,12.35"/>
        <path class="cls-3" d="m147.71,106.85l11,12.97"/>
        <path class="cls-3" d="m155.9,100.28l10.28,13.54"/>
        <path class="cls-3" d="m164.43,94.17l9.53,14.08"/>
        <path class="cls-3" d="m173.28,88.53l8.76,14.57"/>
        <path class="cls-3" d="m182.42,83.37l7.95,15.02"/>
        <path class="cls-3" d="m191.83,78.72c2.38,5.14,4.75,10.29,7.13,15.43"/>
        <path class="cls-3" d="m201.48,74.58c2.1,5.27,4.19,10.53,6.29,15.8"/>
        <path class="cls-3" d="m211.33,70.97c1.81,5.37,3.61,10.74,5.42,16.11"/>
        <path class="cls-3" d="m221.37,67.9l4.54,16.38"/>
        <path class="cls-3" d="m231.55,65.38c1.22,5.53,2.43,11.07,3.65,16.6"/>
        <path class="cls-3" d="m241.86,63.41l2.75,16.78"/>
        <path class="cls-3" d="m252.26,62c.61,5.63,1.22,11.27,1.84,16.9"/>
        <path class="cls-3" d="m262.72,61.15l.92,16.98"/>
        <path class="cls-3" d="m273.21,60.87v17"/>
        <path class="cls-2" d="m330.24,97.09c3.05-8.19,6.09-16.37,9.14-24.56"/>
        <path class="cls-2" d="m371.52,119.01c5.18-7.03,10.37-14.06,15.55-21.09"/>
        <path class="cls-2" d="m121.9,374.33c6.92-5.33,13.84-10.66,20.76-15.98"/>
        <path class="cls-2" d="m405.16,151.46c6.92-5.33,13.84-10.66,20.76-15.98"/>
        <path class="cls-2" d="m93.9,327.52c8.12-3.21,16.24-6.43,24.36-9.64"/>
        <path class="cls-2" d="m428.54,191.92c8.12-3.21,16.24-6.43,24.36-9.64"/>
        <path class="cls-2" d="m79.86,275.1c8.69-.85,17.38-1.7,26.08-2.55"/>
        <path class="cls-2" d="m439.88,237.26c8.69-.85,17.38-1.7,26.08-2.55"/>
        <path class="cls-2" d="m81.77,221.1c8.59,1.58,17.18,3.16,25.77,4.73"/>
        <path class="cls-2" d="m438.27,283.96c8.59,1.58,17.18,3.16,25.77,4.73"/>
        <path class="cls-2" d="m98.49,169.73c7.82,3.88,15.64,7.77,23.47,11.65"/>
        <path class="cls-2" d="m423.85,328.42c7.82,3.88,15.64,7.77,23.47,11.65"/>
        <path class="cls-2" d="m128.72,124.95c6.45,5.89,12.9,11.78,19.35,17.67"/>
        <path class="cls-2" d="m397.74,367.18c6.45,5.89,12.9,11.78,19.35,17.67"/>
        <path class="cls-2" d="m170.13,90.24c4.58,7.44,9.15,14.88,13.73,22.32"/>
        <path class="cls-2" d="m219.5,68.29l7.04,25.24"/>
        <path class="cls-2" d="m273,60.8c-.06,8.73-.13,17.47-.19,26.2"/>
        <line class="cls-4" x1="207" y1="147.14" x2="216.12" y2="161.83"/>
        <line class="cls-4" x1="161.95" y1="198.79" x2="177.44" y2="206.48"/>
        <line class="cls-4" x1="379.9" y1="270.56" x2="396.87" y2="273.93"/>
        <line class="cls-4" x1="354.21" y1="326.2" x2="366.57" y2="338.3"/>
        <line class="cls-4" x1="388.91" y1="202.5" x2="372.57" y2="208.17"/>
        <line class="cls-4" x1="166.36" y1="265.47" x2="149.15" y2="267.16"/>
        <line class="cls-4" x1="190.66" y1="323.11" x2="176.85" y2="333.52"/>
        <line class="cls-4" x1="347.82" y1="149.36" x2="337.79" y2="163.45"/>
        <line class="cls-4" x1="274.38" y1="127.9" x2="274.16" y2="145.19"/>
        <text class="cls-6" transform="translate(379.96 363.04)"><tspan x="0" y="0">8</tspan></text>
        <text class="cls-6" transform="translate(338.96 140.04)"><tspan x="0" y="0">5</tspan></text>
        <text class="cls-6" transform="translate(393.96 206.04)"><tspan x="0" y="0">6</tspan></text>
        <text class="cls-6" transform="translate(404.96 287.04)"><tspan x="0" y="0">7</tspan></text>
        <text class="cls-6" transform="translate(261.96 120.04)"><tspan x="0" y="0">4</tspan></text>
        <text class="cls-6" transform="translate(121.96 283.04)"><tspan x="0" y="0">1</tspan></text>
        <text class="cls-6" transform="translate(130.96 198.04)"><tspan x="0" y="0">2</tspan></text>
        <text class="cls-6" transform="translate(185.96 140.04)"><tspan x="0" y="0">3</tspan></text>
        <text class="cls-6" transform="translate(155.96 362.04)"><tspan x="0" y="0">0</tspan></text>
        <text class="cls-7" transform="translate(224.12 376.24)"><tspan x="0" y="0">RPM x 1000</tspan></text>
        <path class="cls-1" d="m164.59,343.48c-20.35-24.37-32.59-55.75-32.59-89.98,0-50.67,26.83-95.08,67.05-119.8"/>
        <line class="cls-4" x1="207.5" y1="147.21" x2="216.63" y2="161.9"/>
        <line class="cls-4" x1="162.45" y1="198.86" x2="177.94" y2="206.55"/>
        <line class="cls-4" x1="380.41" y1="270.63" x2="397.37" y2="274.01"/>
        <line class="cls-4" x1="354.71" y1="326.27" x2="367.07" y2="338.37"/>
        <line class="cls-4" x1="389.41" y1="202.57" x2="373.07" y2="208.25"/>
        <line class="cls-4" x1="166.86" y1="265.54" x2="149.65" y2="267.23"/>
        <line class="cls-4" x1="191.16" y1="323.18" x2="177.35" y2="333.6"/>
        <line class="cls-4" x1="348.32" y1="149.43" x2="338.3" y2="163.53"/>
        <line class="cls-4" x1="274.88" y1="127.97" x2="274.67" y2="145.26"/>
      </g>
    </g>
  </g>
</svg>